<svg xmlns="http://www.w3.org/2000/svg" width="100" height="102" viewBox="0 0 100 102">
    <path fill="none" stroke="hsl(211, 53%, 56%)" stroke-width="1.4" d="M85.706 27.828c.086-.006 2.65-.116 5.49 1.759 1.477.975 3.022 2.482 4.35 4.799 2.052 3.58 3.57 9.051 3.57 17.39 0 24.23-15.427 23.02-15.427 23.02h0l-34.545-.004v4.816h24.169l.027 10.731c.007.046.24 1.968-1.417 4.096-.886 1.14-2.296 2.326-4.51 3.35-3.458 1.6-8.821 2.783-17.117 2.783-8.653 0-14.207-1.422-17.759-3.347-2.281-1.237-3.714-2.674-4.602-4.05-1.674-2.592-1.383-4.936-1.368-5.04h0l.008-21.984c0-4.143 1.378-6.903 3.25-8.727 3.513-3.419 8.674-3.581 9.419-3.589H63.31c5.036 0 8.326-1.673 10.49-3.87 4.023-4.083 4.135-10.068 4.13-10.894v-.07l-.001-11.168zM63.622 86.57c-.747 0-1.422.302-1.91.79-.489.489-.79 1.164-.79 1.91 0 .747.301 1.422.79 1.91.488.488 1.163.79 1.91.79.746 0 1.421-.302 1.91-.79.488-.488.79-1.163.79-1.91 0-.746-.302-1.421-.79-1.91-.489-.488-1.164-.79-1.91-.79zM49.577.73c8.654 0 14.209 1.422 17.76 3.347 2.282 1.238 3.714 2.675 4.602 4.051 1.708 2.648 1.367 5.035 1.367 5.036h0l-.008 21.987c0 4.134-1.373 6.891-3.24 8.715-3.45 3.368-8.5 3.585-9.393 3.6h0-24.104c-5.035 0-8.325 1.673-10.49 3.87-4.172 4.235-4.138 10.514-4.129 10.965h0v11.167H14.17c-.157.008-2.684.092-5.481-1.75-1.479-.974-3.027-2.48-4.357-4.798C2.276 63.339.756 57.865.756 49.52c0-8.316 1.733-13.674 4.078-17.108 1.523-2.229 3.297-3.631 4.989-4.507 3.274-1.695 6.23-1.419 6.36-1.405h0l34.545.005v-4.817H26.56l-.026-10.731c-.007-.046-.24-1.968 1.416-4.096.886-1.139 2.296-2.326 4.51-3.35C35.917 1.91 41.281.728 49.577.728zM36.25 9.326c-.747 0-1.422.302-1.91.79-.488.489-.79 1.164-.79 1.91 0 .747.302 1.422.79 1.91.488.488 1.163.79 1.91.79.746 0 1.421-.302 1.91-.79.488-.488.79-1.163.79-1.91 0-.746-.302-1.421-.79-1.91-.489-.488-1.164-.79-1.91-.79z"/>
</svg>
