<?xml version="1.0" encoding="UTF-8"?>
<svg width="80px" height="105px" viewBox="0 0 80 105" version="1.1" xmlns="http://www.w3.org/2000/svg" xmlns:xlink="http://www.w3.org/1999/xlink">
    <title>-g- data_engineering copy</title>
    <g id="Services" stroke="none" stroke-width="1" fill="none" fill-rule="evenodd" stroke-linejoin="round">
        <g id="Services-Machine_Learning" transform="translate(-1423.000000, -738.000000)" stroke="hsl(211, 53%, 56%)" stroke-width="1.4">
            <g id="-g--data_engineering-copy" transform="translate(1424.000000, 738.000000)">
                <path d="M73.0201702,48.6808511 L73.0201702,50.893617 C73.0201702,59.1914894 55.3180426,72.4680851 44.2542128,79.6595745 L44.2542128,97.3617021 L35.4031489,104 L33.190383,104 L33.190383,79.6595745 C22.1265532,72.4680851 4.42442553,59.1914894 4.42442553,50.893617 L4.42442553,48.6808511" id="Stroke-1"></path>
                <path d="M19.9148936,48.6808511 L2.21276596,48.6808511 C0.991319149,48.6808511 0,47.6895319 0,46.4680851 L0,42.0425532 C0,40.8211064 0.991319149,39.8297872 2.21276596,39.8297872 L75.2340426,39.8297872 C76.4554894,39.8297872 77.4468085,40.8211064 77.4468085,42.0425532 L77.4468085,46.4680851 C77.4468085,47.6895319 76.4554894,48.6808511 75.2340426,48.6808511 L39.8297872,48.6808511" id="Stroke-3"></path>
                <path d="M55.3191489,35.4042553 L55.3191489,28.7659574 C55.3191489,27.5445106 56.3104681,26.5531915 57.5319149,26.5531915 L61.9574468,26.5531915 C63.1788936,26.5531915 64.1702128,27.5445106 64.1702128,28.7659574 L64.1702128,35.4042553" id="Stroke-5"></path>
                <line x1="35.4042553" y1="26.5531915" x2="35.4042553" y2="35.4042553" id="Stroke-7"></line>
                <path d="M22.1276596,28.7659574 L17.7021277,28.7659574 C16.4806809,28.7659574 15.4893617,27.7746383 15.4893617,26.5531915 L15.4893617,17.7021277 C15.4893617,16.4806809 16.4806809,15.4893617 17.7021277,15.4893617 L22.1276596,15.4893617 C23.3491064,15.4893617 24.3404255,16.4806809 24.3404255,17.7021277 L24.3404255,26.5531915 C24.3404255,27.7746383 23.3491064,28.7659574 22.1276596,28.7659574 Z" id="Stroke-9"></path>
                <path d="M48.6808511,15.4893617 L44.2553191,15.4893617 C43.0338723,15.4893617 42.0425532,14.4980426 42.0425532,13.2765957 L42.0425532,4.42553191 C42.0425532,3.20408511 43.0338723,2.21276596 44.2553191,2.21276596 L48.6808511,2.21276596 C49.9022979,2.21276596 50.893617,3.20408511 50.893617,4.42553191 L50.893617,13.2765957 C50.893617,14.4980426 49.9022979,15.4893617 48.6808511,15.4893617 Z" id="Stroke-11"></path>
                <line x1="4.42553191" y1="0" x2="4.42553191" y2="17.7021277" id="Stroke-13"></line>
                <line x1="73.0212766" y1="4.42553191" x2="73.0212766" y2="22.1276596" id="Stroke-15"></line>
            </g>
        </g>
    </g>
</svg>