<svg xmlns="http://www.w3.org/2000/svg" width="68" height="62" viewBox="0 0 68 62">
    <g fill="none" fill-rule="evenodd" stroke="hsl(211, 53%, 56%)" stroke-linejoin="round" stroke-width="1.4">
        <path d="M32.857 30c0 3.156 2.559 5.714 5.714 5.714 3.156 0 5.715-2.558 5.715-5.714 0-3.156-2.559-5.714-5.715-5.714-3.155 0-5.714 2.558-5.714 5.714zM8.571 15.714C8.571 18.081 6.653 20 4.286 20S0 18.081 0 15.714c0-2.367 1.919-4.285 4.286-4.285 2.367 0 4.285 1.918 4.285 4.285zM8.571 30c0 2.367-1.918 4.286-4.285 4.286S0 32.367 0 30c0-2.367 1.919-4.286 4.286-4.286 2.367 0 4.285 1.919 4.285 4.286zM21.429 4.286c0 2.368-1.919 4.286-4.286 4.286-2.367 0-4.286-1.918-4.286-4.286 0-2.367 1.919-4.285 4.286-4.285 2.367 0 4.286 1.918 4.286 4.285zM4.286 40C1.919 40 0 41.92 0 44.287c0 2.368 1.919 4.286 4.286 4.286 2.367 0 4.285-1.918 4.285-4.286 0-2.367-1.918-4.285-4.285-4.285M21.429 55.714c0-2.367-1.919-4.285-4.286-4.285-2.367 0-4.286 1.918-4.286 4.285S14.776 60 17.143 60c2.367 0 4.286-1.919 4.286-4.286zM25.714 20L20 20 15.714 15.714 8.571 15.714" transform="translate(1 .999)"/>
        <path d="M8.571 44.286h7.143L20 40.001h35.714c0-2.857 1.919-4.286 4.286-4.286V24.286c-2.367 0-4.286-1.428-4.286-4.285H28.571" transform="translate(1 .999)"/>
        <path d="M42.857 45.714L65.714 45.714 65.714 14.286 27.143 14.286 20 7.143M20 52.858L27.143 45.715 34.286 45.715M8.571 30L22.857 30M37.143 45.714L40 45.714M48.571 29.999L51.429 29.999M25.714 29.999L28.571 29.999" transform="translate(1 .999)"/>
    </g>
</svg>
