<svg xmlns="http://www.w3.org/2000/svg" width="40" height="40" viewBox="0 0 40 40">
    <path fill="#FFF" stroke="hsl(211, 53%, 56%)" stroke-width="1.4" d="M39.3.7v38.6H.7V.7h38.6zM29.013 16.02c-1.848 0-3.36.597-4.428 1.56-1.132 1.021-1.776 2.463-1.776 4.108 0 1.577.433 2.771 1.208 3.744.838 1.053 2.1 1.847 3.72 2.562l.946.405c.858.376 1.538.656 1.964 1.044.23.21.35.46.35.81 0 .318-.157.585-.42.776-.343.249-.838.377-1.43.377-1.739 0-2.61-1.046-3.462-2.533l-4.203 2.434c.614 1.517 1.7 2.863 3.279 3.748 1.197.672 2.682 1.08 4.467 1.08 2.027 0 3.775-.562 5.002-1.594 1.2-1.008 1.927-2.465 1.927-4.342 0-1.638-.445-2.85-1.293-3.854-.891-1.053-2.26-1.874-4.12-2.693l-.945-.406c-.743-.321-1.277-.57-1.605-.894-.2-.197-.28-.43-.28-.745 0-.255.093-.483.272-.643.199-.178.487-.268.827-.268.941 0 1.459.531 2.166 1.904l4.094-2.63c-.732-1.51-1.643-2.514-2.75-3.137-.993-.56-2.152-.813-3.51-.813zm-10.831.215h-5.159v13.481c0 .644-.08 1.09-.311 1.361-.23.268-.594.302-1.003.302-.36 0-.633-.098-.862-.28-.505-.404-.82-1.121-1.308-1.92l-4.188 2.534c.514 1.36 1.4 2.618 2.757 3.445.985.6 2.223.977 3.762.977 1.907 0 3.491-.544 4.6-1.664 1.018-1.027 1.656-2.555 1.712-4.692V16.235z"/>
</svg>
