<svg xmlns="http://www.w3.org/2000/svg" width="36" height="40" viewBox="0 0 36 40">
    <g fill="none" stroke="hsl(211, 53%, 56%)" stroke-width="1.4">
        <path d="M26.228.7H9.066c-.284 0-.558.104-.77.292L1.088 7.4C.841 7.62.7 7.934.7 8.264V38.08c0 .32.13.61.34.819.209.21.498.34.818.34h31.579c.319 0 .608-.13.818-.34.21-.21.34-.499.34-.819V8.264c0-.33-.142-.645-.39-.865L26.999.992C26.786.804 26.512.7 26.228.7zM0 9.288L35.294 9.288M0 19.505L35.294 19.505M0 29.721L35.294 29.721M31.579 14.861L26.006 14.861M31.579 25.077L26.006 25.077M31.579 35.294L26.006 35.294M5.573 14.861L3.715 14.861M5.573 25.077L3.715 25.077M5.573 35.294L3.715 35.294M9.288 14.861L7.43 14.861M9.288 25.077L7.43 25.077M9.288 35.294L7.43 35.294"/>
    </g>
</svg>
