<svg xmlns="http://www.w3.org/2000/svg" width="60" height="60" viewBox="0 0 60 60">
    <g fill="none">
        <path stroke="hsl(51, 99%, 54%)" d="M34.913 36.26c1.691 0 3.13-1.607 3.13-3.13v-7.043c0-2.585-4.324-3.913-7.043-3.913-2.719 0-7.043 1.328-7.043 3.913v7.043c0 1.523 1.439 3.13 3.13 3.13M31 19.826c1.824 0 3.13-1.278 3.13-3.13V15.13c0-1.852-1.306-3.13-3.13-3.13-1.824 0-3.13 1.278-3.13 3.13v1.566c0 1.852 1.306 3.13 3.13 3.13zM34.913 48L34.913 27.652M27.087 27.652L27.087 48M31 35.478L31 48M13 30L20.826 30M16.13 33.13L13 30 16.13 26.87M21.609 22.957L16.13 17.478M16.13 21.391L16.13 17.478 20.043 17.478M21.609 37.043L16.13 42.522M16.13 38.609L16.13 42.522 20.043 42.522M49 30L41.174 30M45.87 33.13L49 30 45.87 26.87M40.391 22.957L45.87 17.478M45.87 21.391L45.87 17.478 41.957 17.478M40.391 37.043L45.87 42.522M45.87 38.609L45.87 42.522 41.957 42.522" />
        <circle cx="30" cy="30" r="29.5" stroke="#FFF"/>
    </g>
</svg>
