<svg xmlns="http://www.w3.org/2000/svg" width="60" height="60" viewBox="0 0 60 60">
    <g fill="none">
        <circle cx="30" cy="30" r="29.5" stroke="#FFF"/>
        <g stroke="hsl(51, 99%, 54%)">
            <path d="M11.143 17.146h0c-2.19 0-7.095.964-7.793 3.38-.32 1.105-1.636 8.617-1.636 8.617h18.857s-1.315-7.512-1.635-8.618c-.705-2.44-5.622-3.38-7.793-3.38z" transform="translate(8 12)"/>
            <path d="M16.251 29.143L16.286 22.286 6 22.286 6.034 29.143zM0 29.143L26.571 29.143M32.571 8.571c-1.962 0-3.428-1.644-3.428-3.672V3.673C29.143 1.644 30.609 0 32.57 0 34.534 0 36 1.644 36 3.673v1.226c0 2.028-1.466 3.672-3.429 3.672zM28.286 36V17.143s-2.786 1.714-3.429 1.714c-.643 0-1.995-.595-3.428-1.714-.622-.486-1.356-1.108-2.04-1.771-.958-.93.05-2.509 1.3-2.04 1.34.504 2.69 1.01 3.311 1.24 1.286-1.34 2.625-3.43 6-3.43h6c3.071 0 4.286 1.297 4.286 5.144v5.143c0 1.838-.733 2.571-2.572 2.571h-.857M32.571 24L32.571 36M36.857 16.286L36.857 36M11.143 14.571c-1.963 0-3.429-1.644-3.429-3.672V9.673C7.714 7.644 9.18 6 11.143 6c1.963 0 3.428 1.644 3.428 3.673v1.226c0 2.028-1.465 3.672-3.428 3.672z" transform="translate(8 12)" />
        </g>
    </g>
</svg>
