<svg xmlns="http://www.w3.org/2000/svg" width="91" height="90" viewBox="0 0 91 102">
    <g fill="none" stroke="hsl(211, 53%, 56%)" stroke-width="1.4">
        <path d="M77.017 27.443l-.365-.384c-1.872-1.97-2.402-4.533-1.18-5.692l5.202-4.902c1.88-1.787 4.95-1.637 6.821.335l.366.385c1.871 1.97 1.863 5.045-.018 6.83l-5.202 4.905c-1.222 1.158-3.752.495-5.624-1.477zM37.857 100s4.23-4.359 6.522-6.522C62.1 94.776 68.696 82.502 70.466 80.435M78.368 68.132l-.365-.317c-1.878-1.62-2.578-3.913-1.554-5.1l4.36-5.015c1.577-1.829 4.4-1.996 6.279-.377l.365.316c1.879 1.62 2.126 4.439.55 6.265l-4.36 5.017c-1.025 1.185-3.396.83-5.275-.789zM40.03 84.783c4.72-13.483.103-25.59-4.167-30.98 1.79-5.388 2.527-9.233 3.122-15.566.344-3.641-1.2-6.765-2.81-9.022-1.648-2.306-5.668-1.776-6.475.807-3.556 11.376-4.221 14.471-6.421 20.185-2.459 6.389-1.048 15.354-2.27 17.976-.246.521-4.891 7.904-4.891 7.904M78.401 54.465l-.371-.32c-1.911-1.65-2.622-3.985-1.58-5.191l4.436-5.105c1.602-1.856 4.476-2.028 6.387-.38l.372.32c1.91 1.65 2.163 4.517.558 6.376l-4.436 5.104c-1.04 1.204-3.455.843-5.366-.804z" transform="translate(1 1)"/>
        <path d="M78.4 41.142l-.372-.32c-1.91-1.65-2.621-3.984-1.58-5.19l4.437-5.105c1.602-1.857 4.478-2.029 6.387-.383l.372.322c1.91 1.648 2.163 4.517.558 6.374l-4.437 5.104c-1.04 1.207-3.454.846-5.365-.802zM53.074 73.913L59.596 73.913M53.074 6.522L59.596 6.522M79.161 17.391V6.521C79.161 2.92 76.241 0 72.64 0H40.03c-3.601 0-6.52 2.917-6.52 6.52v21.74M40.03 80.435h32.61c3.602 0 6.521-2.92 6.521-6.522v-4.348M40.031 100L11.77 71.739.9 82.609 18.292 100M11.77 82.609L16.118 86.957M42.205 67.391L76.987 67.391" transform="translate(1 1)"/>
    </g>
</svg>
