<svg xmlns="http://www.w3.org/2000/svg" width="60" height="61" viewBox="0 0 60 61">
    <g fill="none" fill-rule="evenodd" stroke="hsl(211, 53%, 56%)" stroke-linejoin="round" stroke-width="1.4">
        <path d="M15.32 20.426c0 2.115-1.715 3.83-3.83 3.83-2.116 0-3.83-1.715-3.83-3.83 0-2.116 1.714-3.83 3.83-3.83 2.115 0 3.83 1.714 3.83 3.83zM28.085 20.426c0 2.115-1.714 3.83-3.83 3.83-2.115 0-3.83-1.715-3.83-3.83 0-2.116 1.715-3.83 3.83-3.83 2.116 0 3.83 1.714 3.83 3.83z" transform="translate(1)"/>
        <path d="M33.191 16.598v-2.553c0-2.82-2.286-5.106-5.106-5.106H7.66c-2.82 0-5.107 2.286-5.107 5.106v2.553C1.143 16.598 0 17.742 0 19.151v3.83c0 1.41 1.144 2.553 2.553 2.553v6.38h30.638v-6.38c1.41 0 2.554-1.143 2.554-2.553v-3.83c0-1.409-1.144-2.553-2.554-2.553zM17.872 8.936L17.872 0M2.553 54.894L14.043 60h32.785c1.026 0 1.955-.615 2.353-1.563l8.063-19.148c.708-1.683-.526-3.544-2.353-3.544h-31.46c-1.045 0-1.983.635-2.371 1.604l-7.017 17.545-11.737-5.337c-1.277-.58-1.848-2.08-1.277-3.36l3.403-7.66c.41-.92 1.324-1.516 2.334-1.516h4.723v-5.106M34.468 47.234L38.298 47.234" transform="translate(1)"/>
    </g>
</svg>
