<svg xmlns="http://www.w3.org/2000/svg" width="40" height="41" viewBox="0 0 40 41">
    <g fill="none" fill-rule="evenodd" stroke="hsl(211, 53%, 56%)" stroke-linejoin="round" stroke-width="1.4">
        <path d="M4.655 24.186c0-.252-.901-.381-1.479-.381-1.752 0-3.172 1.42-3.172 3.172V6.512c0-1.753 1.42-2.791 3.172-2.791.578 0 1.48.273 1.48.93v19.535zM13.027 7.442L5.585 7.442" transform="translate(1)"/>
        <path d="M.004 26.977c.011 2.914 2.3 3.72 4.651 3.72h33.489V7.443H22.33M20.47 7.44c0 1.542-1.26 2.793-2.814 2.793s-2.814-1.25-2.814-2.793c0-1.542 1.26-2.793 2.814-2.793s2.813 1.25 2.813 2.793z" transform="translate(1)"/>
        <path d="M25.568 14.884c-1.885 2.254-4.73 3.689-7.912 3.689-3.183 0-6.027-1.435-7.913-3.69M17.678 4.651L17.678 0M16.664 10.05L11.167 24.186M18.689 10.04L24.19 24.186M.934 35.349h26.047c3.197 0 5.311 2.306 5.311 2.306S30.178 40 26.981 40H.934c-1.197-.847-1.293-3.737 0-4.651zM4.655 40L4.655 35.349" transform="translate(1)"/>
    </g>
</svg>
