<svg xmlns="http://www.w3.org/2000/svg" width="60" height="60" viewBox="0 0 60 60">
    <g fill="none">
        <g stroke="hsl(51, 99%, 54%)">
            <path d="M13.374 19.56c0 1.543-1.25 2.793-2.792 2.793-1.542 0-2.792-1.25-2.792-2.792 0-1.542 1.25-2.792 2.792-2.792 1.542 0 2.792 1.25 2.792 2.792zM5.396 35.916l1.865-8.7c.308-1.44 1.327-2.17 2.922-2.47l4.787-.797 4.745-4.284s1.573 2.688-.169 4.334l-3.422 3.387-5.232 1.599M12.577 35.916L14.163 27.985M25.77 21.954c0 1.543 1.25 2.793 2.792 2.793 1.543 0 2.793-1.25 2.793-2.793 0-1.542-1.25-2.792-2.793-2.792-1.542 0-2.792 1.25-2.792 2.792zM35.277 35.916l-1.788-6.22c-.308-1.44-1.204-2.556-3.73-2.556h-9.573s.532 3.191 3.19 3.191h6.383M29.393 35.916L27.366 30.331M11.096 2.988L.066 7.709 3.698 10.516 3.206 15.041 14.236 10.321M18.656 20.624L9.814.015M21.345 27.134L19.888 23.607M24.972 35.916L22.627 30.238" transform="translate(13 12)"/>
        </g>
        <circle cx="30" cy="30" r="29.5" stroke="#FFF"/>
    </g>
</svg>
