<svg xmlns="http://www.w3.org/2000/svg" width="80" height="80" viewBox="0 0 80 80">
    <g fill="none">
        <circle cx="40" cy="40" r="39.5" stroke="hsl(211, 53%, 56%)"/>
        <g stroke="hsl(211, 53%, 56%)">
            <path d="M27.413 16.842c0 2.325 1.886 4.21 4.21 4.21 2.326 0 4.211-1.885 4.211-4.21s-1.885-4.21-4.21-4.21-4.21 1.885-4.21 4.21z" transform="translate(15 20)"/>
            <path d="M38.34 27.527l3.462 2.957 3.464-3.465-2.957-3.461c.747-1.185 1.303-2.5 1.623-3.909l4.535-.356v-4.9l-4.535-.357c-.32-1.409-.876-2.723-1.623-3.909l2.957-3.462-3.464-3.464-3.463 2.956c-1.185-.747-2.5-1.302-3.908-1.622L34.074 0h-4.9l-.357 4.535c-1.408.32-2.723.875-3.908 1.622L21.447 3.2l-3.464 3.465 2.955 3.461c-.746 1.186-1.302 2.501-1.622 3.909l-2.166.17M9.52 23.158c-2.488 0-4.211-2.02-4.211-4.512v-1.504c0-2.491 1.723-4.51 4.21-4.51s4.21 2.019 4.21 4.51v1.504c0 2.492-1.723 4.512-4.21 4.512zM.045 38.947s.69-5.854 1.053-8.42c.362-2.567 1.895-4.211 4.21-4.211h2.106l7.348 8.42h6.316s.47 4.211-3.158 4.211h-6.296l-5.263-6.315" transform="translate(15 20)"/>
            <path d="M15.835 31.579L20.045 25.263 34.782 25.263 28.466 35.789 23.203 35.789M6.361 38.947L36.887 38.947" transform="translate(15 20)" />
        </g>
    </g>
</svg>
