<svg xmlns="http://www.w3.org/2000/svg" width="45" height="62" viewBox="0 0 45 62">
    <g fill="none" fill-rule="evenodd" stroke="hsl(211, 53%, 56%)" stroke-linejoin="round" stroke-width="1.4">
        <path d="M3.913 53.478V50.87c0-1.442 1.169-2.61 2.609-2.61h7.826M18.26 48.26h3.914c1.44 0 2.609 1.168 2.609 2.61v2.608M15.652 53.478H2.61C1.169 53.478 0 54.646 0 56.087V60h28.696v-3.913c0-1.441-1.169-2.609-2.609-2.609h-6.522M16.957 13.043L16.957 9.13 20.87 9.13 20.87 3.913 16.957 3.913 16.957 0 11.739 0 11.739 3.913 7.826 3.913 7.826 9.13 11.739 9.13 11.739 13.043M20.87 48.26L19.565 30h3.913c.722 0 1.305-.584 1.305-1.304v-2.609c0-.72-.583-1.304-1.305-1.304h-1.49l2.795-10.435c0-.72-.583-1.305-1.305-1.305H5.218c-.722 0-1.305.585-1.305 1.305l2.795 10.435h-1.49c-.722 0-1.305.584-1.305 1.304v2.609c0 .72.583 1.304 1.304 1.304H9.13L7.826 48.26M6.522 24.783L13.043 24.783M22.174 24.783L16.957 24.783M9.13 30L13.043 30M19.565 30L16.957 30M24.783 40.435h15.652c.721 0 1.304.583 1.304 1.304v2.609c0 .72-.583 1.304-1.304 1.304h-11.74M32.609 60h10.434v-2.609c0-1.441-1.168-2.608-2.608-2.608h-5.218M39.13 45.652L39.13 54.783M30.05 26.515c.802-.278 1.663-.428 2.559-.428 4.321 0 7.826 3.504 7.826 7.826 0 2.701-1.368 5.083-3.451 6.49" transform="translate(1 1)"/>
    </g>
</svg>
