<svg xmlns="http://www.w3.org/2000/svg" width="80" height="80" viewBox="0 0 80 80">
    <g fill="none">
        <circle cx="40" cy="40" r="39.5" stroke="hsl(211, 53%, 56%)"/>
        <g stroke="hsl(211, 53%, 56%)">
            <path d="M24.69 0c8.336 0 15.094 5.521 15.094 12.332 0 3.075-1.386 5.88-3.664 8.04.083 1.855.509 3.981 1.276 5.9.213.532-.256 1.087-.81.952-3.249-.79-5.396-2.074-6.718-3.32-1.617.484-3.357.76-5.179.76-8.337 0-15.095-5.52-15.095-12.332C9.594 5.522 16.352 0 24.689 0z" transform="translate(20 24)"  />
            <path d="M24.69 22.05c.328-.913.504-1.88.504-2.88 0-5.662-5.64-10.253-12.596-10.253M7.783 9.692C3.214 11.232 0 14.895 0 19.17c0 2.557 1.156 4.889 3.057 6.684-.068 1.544-.424 3.31-1.065 4.906-.177.443.214.905.677.792 2.71-.657 4.502-1.724 5.606-2.76 1.349.401 2.8.632 4.322.632 3.113 0 5.962-.92 8.16-2.442" transform="translate(20 24)"  />
        </g>
    </g>
</svg>
