<svg xmlns="http://www.w3.org/2000/svg" width="80" height="80" viewBox="0 0 80 80">
    <g fill="none">
        <circle cx="40" cy="40" r="39.5" stroke="hsl(211, 53%, 56%)"/>
        <g stroke="hsl(211, 53%, 56%)">
            <path d="M24.348 26.957c1.879 0 3.478-1.787 3.478-3.479v-7.826c0-2.872-5.675-4.348-8.696-4.348-3.02 0-8.695 1.476-8.695 4.348v7.826c0 1.692 1.599 3.479 3.478 3.479M34.783 28.696c1.69 0 3.478-.918 3.478-2.609v-7.826c0-2.872-5.108-4.348-7.826-4.348-.27 0-.562.015-.87.044M19.13 8.696c2.027 0 3.479-1.42 3.479-3.479V3.478C22.609 1.42 21.157 0 19.13 0s-3.478 1.42-3.478 3.478v1.74c0 2.058 1.451 3.478 3.478 3.478zM34.783 40L34.783 20M24.348 40L24.348 17.391M13.913 17.391L13.913 40M19.13 26.087L19.13 40M30.435 11.304c2.027 0 3.478-1.42 3.478-3.478V6.087c0-2.058-1.451-3.478-3.478-3.478s-3.478 1.42-3.478 3.478v1.74c0 2.057 1.45 3.477 3.478 3.477zM3.478 28.696C1.787 28.696 0 27.778 0 26.087v-7.826c0-2.872 5.108-4.348 7.826-4.348.27 0 .562.015.87.044M3.478 40L3.478 20M7.826 11.304c-2.027 0-3.478-1.42-3.478-3.478V6.087c0-2.058 1.451-3.478 3.478-3.478s3.478 1.42 3.478 3.478v1.74c0 2.057-1.451 3.477-3.478 3.477z" transform="translate(21 20)"/>
        </g>
    </g>
</svg>
