<svg xmlns="http://www.w3.org/2000/svg" width="42" height="38" viewBox="0 0 42 38">
    <g fill="none" stroke="hsl(211, 53%, 56%)" stroke-width="1.4" transform="translate(0 -4)">
        <path fill="#FFF" d="M21.212 20.33c-.853 0-1.625.346-2.184.905-.559.559-.904 1.331-.904 2.184 0 .853.345 1.625.904 2.184.56.558 1.331.904 2.184.904.853 0 1.625-.346 2.184-.904.559-.56.904-1.331.904-2.184 0-.853-.345-1.625-.904-2.184-.559-.559-1.331-.904-2.184-.904z"/>
        <ellipse cx="21" cy="23.673" rx="20.3" ry="7.7"/>
        <ellipse cx="21" cy="22.909" rx="20.3" ry="7.7" transform="rotate(-60 21 22.91)"/>
        <ellipse cx="21" cy="22.909" rx="20.3" ry="7.7" transform="rotate(-120 21 22.91)"/>
    </g>
</svg>
