<svg xmlns="http://www.w3.org/2000/svg" width="133" height="103" viewBox="0 0 133 103">
    <g fill="none" stroke="hsl(211, 53%, 56%)" stroke-width="1.4">
        <path d="M99.623 94.286c1.574 0 2.846-1.28 2.846-2.857V5.714c0-1.577-1.272-2.857-2.846-2.857H2.846C1.276 2.857 0 4.137 0 5.714V91.43c0 1.577 1.275 2.857 2.846 2.857h96.777zM5.693 20L96.776 20M8.539 11.429L14.232 11.429M17.078 11.429L22.771 11.429M123.817 0c-3.931 0-7.116 2.56-7.116 5.714v80L123.817 100l7.116-14.286v-80c0-3.154-3.185-5.714-7.116-5.714zM116.701 17.143L130.933 17.143" transform="translate(1 1)"/>
        <path d="M65.466 68.571L76.852 57.143 65.466 45.714M37.003 68.571L25.617 57.143 37.003 45.714M56.927 42.857L45.542 71.429" transform="translate(1 1)"/>
    </g>
</svg>
